<svg id="Layer_1" data-name="Layer 1" xmlns="http://www.w3.org/2000/svg" viewBox="0 0 224 224"><defs><style>.cls-1{fill:#fff;}</style></defs><title>WSD-Ident-White</title><path class="cls-1" d="M209.07,0H14.93A14.94,14.94,0,0,0,0,14.93V209.07A14.94,14.94,0,0,0,14.93,224H209.07A14.94,14.94,0,0,0,224,209.07V14.93A14.94,14.94,0,0,0,209.07,0Zm7.46,207.2a9.33,9.33,0,0,1-9.33,9.33H16.8a9.33,9.33,0,0,1-9.33-9.33V16.8A9.33,9.33,0,0,1,16.8,7.47H207.2a9.33,9.33,0,0,1,9.33,9.33ZM96.92,123,108,146.79l-7.31,15.61H78.81L39.2,72.8H65.25L92,133.6Zm30.18-17-11.17-24,4.3-9.26h22.42ZM158.57,72.8H184.8l-39.61,89.6H123.12L81.34,72.8h22.43L112,90.5v0l11.15,23.92,0,0,8.84,19Z"/></svg>